<?xml version="1.0" encoding="utf-8"?>
<!-- Generator: Adobe Illustrator 16.0.0, SVG Export Plug-In . SVG Version: 6.00 Build 0)  -->
<!DOCTYPE svg PUBLIC "-//W3C//DTD SVG 1.1//EN" "http://www.w3.org/Graphics/SVG/1.1/DTD/svg11.dtd">
<svg version="1.1" id="Layer_1" xmlns="http://www.w3.org/2000/svg" xmlns:xlink="http://www.w3.org/1999/xlink" x="0px" y="0px"
	 width="507.617px" height="158.46px" viewBox="0 0 507.617 158.46" enable-background="new 0 0 507.617 158.46"
	 xml:space="preserve">
<circle fill="#FFFFFF" cx="79.497" cy="80.503" r="66.5"/>
<g>
	<path fill="#559E3F" d="M73.772,82.149v-0.017c-2.446,3.531-0.575,8.641,3.31,10.44c0.07,5.03-0.073,10.14,0.07,15.181
		c1.943,0.069,3.887,0.14,5.83,0.069c0.432-5.25,0.07-10.5,0.216-15.68c3.454-2.229,4.749-7.341,2.014-10.57
		C82.479,77.759,76.075,78.119,73.772,82.149z"/>
	<path fill="#559E3F" d="M89.89,45.234c-6.619-4.749-16.692-3.166-21.442,3.454h0.005c-4.897,6.046-2.738,14.246-3.238,21.442
		h31.512c0-4.246,0.08-8.49,0-12.736C96.582,52.501,93.848,47.968,89.89,45.234z"/>
</g>
<path fill="#559E3F" d="M507.586,38.542c0.215-1.582-1.297-2.879-2.807-2.662H145.658c-9.283-14.177-23.17-25.328-39.146-31.086
	c-17.7-6.476-37.704-6.403-55.263,0.289c-17.055,6.4-31.66,18.92-40.722,34.676C1.605,55.158-1.777,73.578,0.884,91.134
	c2.088,13.959,8.061,27.34,17.054,38.209c15.183,18.779,39.287,29.93,63.467,29.07c24.176-0.431,47.634-12.881,61.81-32.381h357.172
	c1.799,0,3.67,0.141,5.469-0.07c1.441-0.289,1.871-1.869,1.73-3.16C507.586,94.733,507.656,66.603,507.586,38.542z M110.039,117.407
	H51.754c-3.31,0.287-6.477-2.663-6.26-6.045c0.07-12.019-0.074-23.961,0.07-35.978c0.215-3.887,4.39-5.971,7.845-5.397
	c0.287-7.267-1.01-14.966,1.87-21.946l0.015-0.017c3.521-8.49,11.37-15.25,20.291-16.831c6.11-1.15,12.73-0.359,18.271,2.73
	c7.84,4.39,13.739,12.449,14.46,21.52c0.29,4.82,0.069,9.71,0.14,14.609c3.526-0.5,7.699,1.511,7.843,5.4
	c0.145,11.44,0,22.95,0.072,34.471C117.019,113.666,114.069,117.839,110.039,117.407z"/>
<g>
	<path fill="#FFFFFF" d="M180.455,73.094l-2.399,8.646h-7.896l10.294-33.682h9.994l10.444,33.682h-8.195l-2.599-8.646H180.455z
		 M189,67.397l-2.099-7.146c-0.6-1.999-1.199-4.497-1.699-6.496h-0.1c-0.5,1.999-1,4.547-1.549,6.496l-1.999,7.146H189z"/>
	<path fill="#FFFFFF" d="M222.784,81.14c-1.349,0.6-3.898,1.1-6.796,1.1c-7.896,0-12.943-4.798-12.943-12.493
		c0-7.146,4.897-12.993,13.993-12.993c1.999,0,4.197,0.35,5.796,0.949l-1.199,5.647c-0.899-0.4-2.249-0.75-4.248-0.75
		c-3.998,0-6.596,2.849-6.546,6.847c0,4.497,2.999,6.846,6.696,6.846c1.799,0,3.198-0.3,4.348-0.749L222.784,81.14z"/>
	<path fill="#FFFFFF" d="M232.28,71.944c0.25,3.148,3.348,4.647,6.896,4.647c2.599,0,4.697-0.35,6.746-0.999l1,5.147
		c-2.499,0.999-5.547,1.499-8.845,1.499c-8.295,0-13.043-4.798-13.043-12.443c0-6.196,3.848-13.043,12.343-13.043
		c7.896,0,10.894,6.146,10.894,12.193c0,1.299-0.15,2.448-0.25,2.998H232.28z M241.225,66.747c0-1.849-0.8-4.947-4.298-4.947
		c-3.198,0-4.498,2.898-4.697,4.947H241.225z"/>
	<path fill="#FFFFFF" d="M252.77,75.093c1.399,0.85,4.298,1.849,6.547,1.849c2.299,0,3.248-0.799,3.248-2.049
		c0-1.249-0.75-1.849-3.598-2.798c-5.048-1.699-6.996-4.447-6.946-7.346c0-4.548,3.897-7.996,9.944-7.996
		c2.849,0,5.396,0.649,6.896,1.399l-1.35,5.247c-1.1-0.6-3.198-1.399-5.297-1.399c-1.85,0-2.898,0.75-2.898,1.999
		c0,1.149,0.949,1.749,3.947,2.799c4.647,1.599,6.597,3.947,6.646,7.546c0,4.547-3.598,7.896-10.594,7.896
		c-3.198,0-6.047-0.7-7.896-1.699L252.77,75.093z"/>
	<path fill="#FFFFFF" d="M274.459,75.093c1.399,0.85,4.298,1.849,6.547,1.849c2.299,0,3.248-0.799,3.248-2.049
		c0-1.249-0.75-1.849-3.598-2.798c-5.048-1.699-6.996-4.447-6.946-7.346c0-4.548,3.897-7.996,9.944-7.996
		c2.849,0,5.396,0.649,6.896,1.399l-1.35,5.247c-1.1-0.6-3.198-1.399-5.297-1.399c-1.85,0-2.898,0.75-2.898,1.999
		c0,1.149,0.949,1.749,3.947,2.799c4.647,1.599,6.597,3.947,6.646,7.546c0,4.547-3.598,7.896-10.594,7.896
		c-3.198,0-6.047-0.7-7.896-1.699L274.459,75.093z"/>
	<path fill="#FFFFFF" d="M320.334,69.246c0,8.945-6.346,13.043-12.893,13.043c-7.146,0-12.642-4.697-12.642-12.593
		c0-7.896,5.197-12.943,13.042-12.943C315.337,56.753,320.334,61.9,320.334,69.246z M302.645,69.496
		c0,4.197,1.749,7.346,4.997,7.346c2.948,0,4.848-2.948,4.848-7.346c0-3.648-1.399-7.346-4.848-7.346
		C303.993,62.15,302.645,65.898,302.645,69.496z"/>
	<path fill="#FFFFFF" d="M335.078,75.093c1.399,0.85,4.298,1.849,6.547,1.849c2.299,0,3.248-0.799,3.248-2.049
		c0-1.249-0.75-1.849-3.598-2.798c-5.048-1.699-6.996-4.447-6.946-7.346c0-4.548,3.897-7.996,9.944-7.996
		c2.849,0,5.396,0.649,6.896,1.399l-1.35,5.247c-1.1-0.6-3.198-1.399-5.297-1.399c-1.85,0-2.898,0.75-2.898,1.999
		c0,1.149,0.949,1.749,3.947,2.799c4.647,1.599,6.597,3.947,6.646,7.546c0,4.547-3.598,7.896-10.594,7.896
		c-3.198,0-6.047-0.7-7.896-1.699L335.078,75.093z"/>
	<path fill="#FFFFFF" d="M362.665,71.944c0.249,3.148,3.348,4.647,6.896,4.647c2.599,0,4.697-0.35,6.747-0.999l0.999,5.147
		c-2.499,0.999-5.547,1.499-8.845,1.499c-8.296,0-13.043-4.798-13.043-12.443c0-6.196,3.848-13.043,12.343-13.043
		c7.896,0,10.895,6.146,10.895,12.193c0,1.299-0.15,2.448-0.25,2.998H362.665z M371.609,66.747c0-1.849-0.799-4.947-4.297-4.947
		c-3.198,0-4.498,2.898-4.698,4.947H371.609z"/>
	<path fill="#FFFFFF" d="M406.543,57.303c-0.101,1.549-0.2,3.598-0.2,7.246v13.643c0,4.697-0.949,8.545-3.698,10.994
		c-2.698,2.299-6.346,2.998-9.944,2.998c-3.198,0-6.597-0.649-8.795-1.899l1.499-5.746c1.549,0.899,4.248,1.849,7.096,1.849
		c3.599,0,6.347-1.949,6.347-6.446v-1.6h-0.1c-1.449,2.049-3.798,3.198-6.597,3.198c-6.047,0-10.344-4.897-10.344-11.943
		c0-7.846,5.097-12.843,11.094-12.843c3.348,0,5.447,1.449,6.696,3.448h0.1l0.25-2.898H406.543z M398.747,67.247
		c0-0.5-0.05-0.999-0.15-1.399c-0.549-1.999-1.998-3.348-4.098-3.348c-2.748,0-4.997,2.498-4.997,6.946
		c0,3.647,1.799,6.496,4.997,6.496c1.949,0,3.498-1.299,3.998-3.099c0.2-0.549,0.25-1.349,0.25-1.998V67.247z"/>
	<path fill="#FFFFFF" d="M435.479,73.894c0,3.198,0.1,5.797,0.199,7.846h-6.596l-0.35-3.448h-0.15
		c-0.949,1.499-3.248,3.998-7.646,3.998c-4.947,0-8.596-3.099-8.596-10.645V57.303h7.646v13.143c0,3.548,1.149,5.697,3.799,5.697
		c2.099,0,3.298-1.449,3.798-2.648c0.199-0.45,0.249-1.05,0.249-1.649V57.303h7.646V73.894z"/>
	<path fill="#FFFFFF" d="M441.575,65.349c0-3.599-0.1-5.947-0.199-8.046h6.546l0.25,4.497h0.2c1.249-3.548,4.247-5.047,6.597-5.047
		c0.699,0,1.049,0,1.599,0.1v7.146c-0.55-0.1-1.199-0.2-2.049-0.2c-2.799,0-4.697,1.499-5.197,3.849
		c-0.1,0.499-0.149,1.099-0.149,1.698v12.394h-7.597V65.349z"/>
	<path fill="#FFFFFF" d="M484.303,69.246c0,8.945-6.346,13.043-12.893,13.043c-7.146,0-12.643-4.697-12.643-12.593
		c0-7.896,5.197-12.943,13.043-12.943C479.306,56.753,484.303,61.9,484.303,69.246z M466.613,69.496
		c0,4.197,1.749,7.346,4.997,7.346c2.948,0,4.848-2.948,4.848-7.346c0-3.648-1.399-7.346-4.848-7.346
		C467.962,62.15,466.613,65.898,466.613,69.496z"/>
	<path fill="#FFFFFF" d="M176.383,96.531h-0.06l-3.387,1.827l-0.509-2.008l4.255-2.277h2.248v19.479h-2.547V96.531z"/>
	<path fill="#FFFFFF" d="M198.983,103.604c0,6.623-2.458,10.279-6.773,10.279c-3.806,0-6.383-3.566-6.443-10.01
		c0-6.533,2.817-10.129,6.772-10.129C196.646,93.744,198.983,97.399,198.983,103.604z M188.404,103.903
		c0,5.064,1.559,7.941,3.956,7.941c2.697,0,3.986-3.146,3.986-8.122c0-4.795-1.229-7.941-3.956-7.941
		C190.083,95.781,188.404,98.599,188.404,103.903z"/>
	<path fill="#FFFFFF" d="M214.36,103.604c0,6.623-2.458,10.279-6.773,10.279c-3.806,0-6.383-3.566-6.443-10.01
		c0-6.533,2.817-10.129,6.772-10.129C212.022,93.744,214.36,97.399,214.36,103.604z M203.781,103.903
		c0,5.064,1.559,7.941,3.956,7.941c2.697,0,3.986-3.146,3.986-8.122c0-4.795-1.229-7.941-3.956-7.941
		C205.459,95.781,203.781,98.599,203.781,103.903z"/>
	<path fill="#FFFFFF" d="M225.571,99.558c0,4.105-2.158,6.144-4.675,6.144c-2.427,0-4.525-1.948-4.555-5.874
		c0-3.896,2.128-6.083,4.705-6.083C223.773,93.744,225.571,95.842,225.571,99.558z M218.439,99.737
		c-0.06,2.487,0.869,4.375,2.517,4.375c1.738,0,2.517-1.857,2.517-4.435c0-2.368-0.689-4.346-2.517-4.346
		C219.308,95.332,218.439,97.28,218.439,99.737z M220.716,113.883l11.448-20.139h1.678l-11.448,20.139H220.716z M238.248,107.619
		c0,4.105-2.158,6.144-4.645,6.144c-2.427,0-4.525-1.948-4.555-5.844c0-3.926,2.128-6.114,4.705-6.114
		C236.479,101.805,238.248,103.903,238.248,107.619z M231.115,107.799c-0.03,2.487,0.929,4.375,2.547,4.375
		c1.738,0,2.518-1.857,2.518-4.435c0-2.368-0.689-4.346-2.518-4.346C232.014,103.394,231.115,105.342,231.115,107.799z"/>
	<path fill="#FFFFFF" d="M247.725,103.783c0-1.858-0.06-3.356-0.12-4.735h2.367l0.12,2.487h0.06
		c1.079-1.768,2.787-2.816,5.155-2.816c3.506,0,6.144,2.967,6.144,7.372c0,5.214-3.177,7.792-6.594,7.792
		c-1.918,0-3.596-0.84-4.465-2.278h-0.06v7.882h-2.607V103.783z M250.332,107.649c0,0.39,0.06,0.749,0.12,1.078
		c0.479,1.828,2.068,3.087,3.956,3.087c2.787,0,4.405-2.277,4.405-5.604c0-2.907-1.528-5.395-4.315-5.395
		c-1.798,0-3.476,1.288-3.986,3.267c-0.09,0.329-0.18,0.719-0.18,1.079V107.649z"/>
	<path fill="#FFFFFF" d="M264.78,103.573c0-1.708-0.029-3.177-0.12-4.525h2.308l0.09,2.848h0.12
		c0.659-1.948,2.248-3.177,4.016-3.177c0.3,0,0.51,0.029,0.749,0.09v2.487c-0.27-0.061-0.539-0.09-0.898-0.09
		c-1.858,0-3.177,1.408-3.536,3.386c-0.061,0.36-0.12,0.779-0.12,1.229v7.731h-2.607V103.573z"/>
	<path fill="#FFFFFF" d="M287.409,106.181c0,5.364-3.716,7.702-7.222,7.702c-3.926,0-6.953-2.877-6.953-7.463
		c0-4.854,3.177-7.701,7.192-7.701C284.592,98.719,287.409,101.745,287.409,106.181z M275.901,106.33
		c0,3.177,1.828,5.574,4.405,5.574c2.518,0,4.405-2.367,4.405-5.634c0-2.457-1.229-5.574-4.345-5.574
		C277.25,100.696,275.901,103.573,275.901,106.33z"/>
	<path fill="#FFFFFF" d="M293.916,94.883v4.165h3.776v2.008h-3.776v7.822c0,1.798,0.51,2.816,1.978,2.816
		c0.689,0,1.199-0.09,1.529-0.18l0.119,1.979c-0.509,0.209-1.318,0.359-2.337,0.359c-1.229,0-2.218-0.39-2.848-1.109
		c-0.749-0.778-1.019-2.067-1.019-3.775v-7.912h-2.248v-2.008h2.248v-3.476L293.916,94.883z"/>
	<path fill="#FFFFFF" d="M301.949,106.78c0.06,3.565,2.338,5.034,4.975,5.034c1.888,0,3.026-0.329,4.016-0.749l0.449,1.888
		c-0.929,0.42-2.517,0.899-4.824,0.899c-4.466,0-7.133-2.937-7.133-7.313c0-4.375,2.577-7.821,6.803-7.821
		c4.735,0,5.994,4.165,5.994,6.832c0,0.54-0.061,0.959-0.09,1.229H301.949z M309.681,104.892c0.03-1.678-0.689-4.285-3.656-4.285
		c-2.667,0-3.836,2.457-4.045,4.285H309.681z"/>
	<path fill="#FFFFFF" d="M327.995,99.048c-0.06,1.049-0.12,2.218-0.12,3.986v8.421c0,3.326-0.659,5.364-2.067,6.623
		c-1.409,1.318-3.446,1.738-5.274,1.738c-1.738,0-3.656-0.42-4.825-1.199l0.659-2.008c0.959,0.6,2.457,1.139,4.256,1.139
		c2.697,0,4.675-1.408,4.675-5.064v-1.618h-0.06c-0.81,1.349-2.368,2.428-4.615,2.428c-3.597,0-6.174-3.058-6.174-7.073
		c0-4.914,3.207-7.701,6.533-7.701c2.518,0,3.896,1.318,4.525,2.517h0.06l0.12-2.188H327.995z M325.268,104.772
		c0-0.45-0.029-0.84-0.149-1.199c-0.479-1.528-1.769-2.787-3.687-2.787c-2.517,0-4.315,2.128-4.315,5.484
		c0,2.847,1.438,5.215,4.286,5.215c1.618,0,3.086-1.02,3.656-2.697c0.149-0.45,0.209-0.959,0.209-1.409V104.772z"/>
	<path fill="#FFFFFF" d="M335.012,94.973c0.029,0.898-0.63,1.618-1.679,1.618c-0.929,0-1.588-0.72-1.588-1.618
		c0-0.93,0.688-1.648,1.647-1.648C334.382,93.324,335.012,94.043,335.012,94.973z M332.074,113.553V99.048h2.638v14.505H332.074z"/>
	<path fill="#FFFFFF" d="M351.615,92.275v17.531c0,1.289,0.029,2.757,0.119,3.746h-2.367l-0.12-2.518h-0.06
		c-0.81,1.618-2.577,2.848-4.945,2.848c-3.506,0-6.203-2.967-6.203-7.373c-0.03-4.824,2.967-7.791,6.503-7.791
		c2.218,0,3.717,1.049,4.376,2.218h0.06v-8.661H351.615z M348.978,104.952c0-0.33-0.03-0.779-0.12-1.109
		c-0.39-1.678-1.828-3.057-3.806-3.057c-2.728,0-4.346,2.397-4.346,5.604c0,2.937,1.438,5.364,4.286,5.364
		c1.768,0,3.386-1.169,3.865-3.146c0.09-0.36,0.12-0.72,0.12-1.14V104.952z"/>
	<path fill="#FFFFFF" d="M369.12,106.181c0,5.364-3.716,7.702-7.222,7.702c-3.926,0-6.953-2.877-6.953-7.463
		c0-4.854,3.177-7.701,7.192-7.701C366.304,98.719,369.12,101.745,369.12,106.181z M357.612,106.33c0,3.177,1.828,5.574,4.405,5.574
		c2.518,0,4.405-2.367,4.405-5.634c0-2.457-1.229-5.574-4.345-5.574C358.961,100.696,357.612,103.573,357.612,106.33z"/>
</g>
<circle fill="#FFFFFF" cx="152.169" cy="-198.497" r="66.5"/>
<g>
	<path fill="#559E3F" d="M146.445-196.851v-0.017c-2.446,3.531-0.575,8.641,3.31,10.44c0.07,5.03-0.073,10.14,0.07,15.181
		c1.943,0.069,3.887,0.14,5.83,0.069c0.432-5.25,0.07-10.5,0.216-15.68c3.454-2.229,4.749-7.341,2.014-10.57
		C155.152-201.241,148.748-200.881,146.445-196.851z"/>
	<path fill="#559E3F" d="M162.563-233.766c-6.619-4.749-16.692-3.166-21.442,3.454h0.005c-4.897,6.046-2.738,14.246-3.238,21.442
		h31.512c0-4.246,0.08-8.49,0-12.736C169.254-226.499,166.521-231.032,162.563-233.766z"/>
</g>
<path fill="#559E3F" d="M580.259-240.458c0.215-1.582-1.297-2.879-2.807-2.662H218.331c-9.283-14.177-23.17-25.328-39.146-31.086
	c-17.7-6.476-37.704-6.403-55.263,0.289c-17.055,6.4-31.66,18.92-40.722,34.676c-8.923,15.398-12.305,33.818-9.644,51.375
	c2.088,13.959,8.061,27.34,17.054,38.209c15.183,18.779,39.287,29.93,63.467,29.07c24.176-0.431,47.634-12.881,61.81-32.381H573.06
	c1.799,0,3.67,0.141,5.469-0.07c1.441-0.289,1.871-1.869,1.73-3.16C580.259-184.267,580.329-212.397,580.259-240.458z
	 M182.711-161.593h-58.284c-3.31,0.287-6.477-2.663-6.26-6.045c0.07-12.019-0.074-23.961,0.07-35.978
	c0.215-3.887,4.39-5.971,7.845-5.397c0.287-7.267-1.01-14.966,1.87-21.946l0.015-0.017c3.521-8.49,11.37-15.25,20.291-16.831
	c6.11-1.15,12.73-0.359,18.271,2.73c7.84,4.39,13.739,12.449,14.46,21.52c0.29,4.82,0.069,9.71,0.14,14.609
	c3.526-0.5,7.699,1.511,7.843,5.4c0.145,11.44,0,22.95,0.072,34.471C189.692-165.334,186.742-161.161,182.711-161.593z"/>
<text transform="matrix(1 0 0 1 241.9839 -197.2607)"><tspan x="0" y="0" fill="#FFFFFF" font-family="'MyriadPro-Bold'" font-size="49.9759">Acesso seguro</tspan><tspan x="0" y="31.813" fill="#FFFFFF" font-family="'MyriadPro-Regular'" font-size="29.9756">100% protegido</tspan></text>
</svg>
